<svg xmlns="http://www.w3.org/2000/svg" width="24" height="24" viewBox="0 0 24 24" fill="currentColor">
  <path d="M12 0C5.37 0 0 5.37 0 12c0 5.3 3.438 9.8 8.205 11.385.6.113.82-.258.82-.577 0-.285-.01-1.04-.015-2.04-3.338.724-4.042-1.61-4.042-1.61-.546-1.385-1.333-1.754-1.333-1.754-1.09-.745.082-.73.082-.73 1.205.085 1.84 1.238 1.84 1.238 1.07 1.835 2.807 1.305 3.492.998.108-.776.42-1.305.763-1.605-2.665-.3-5.467-1.333-5.467-5.932 0-1.31.47-2.382 1.235-3.222-.124-.303-.535-1.523.116-3.176 0 0 1.008-.322 3.3 1.23A11.52 11.52 0 0112 5.8c1.02.005 2.045.138 3.003.404 2.29-1.552 3.297-1.23 3.297-1.23.653 1.653.242 2.873.118 3.176.77.84 1.233 1.912 1.233 3.222 0 4.61-2.807 5.628-5.48 5.922.432.372.816 1.102.816 2.222 0 1.606-.014 2.896-.014 3.286 0 .322.216.694.825.576C20.565 21.795 24 17.296 24 12c0-6.63-5.373-12-12-12z"/>
</svg>