<svg xmlns="http://www.w3.org/2000/svg" width="24" height="24" viewBox="0 0 24 24" fill="currentColor">
  <path d="M22.23 0H1.77C.79 0 0 .77 0 1.72v20.56C0 23.23.79 24 1.77 24h20.46c.98 0 1.77-.77 1.77-1.72V1.72C24 .77 23.21 0 22.23 0zM7.12 20.45H3.56V9h3.56v11.45zM5.34 7.43c-1.14 0-2.06-.93-2.06-2.07 0-1.14.92-2.06 2.06-2.06 1.14 0 2.07.92 2.07 2.06 0 1.14-.93 2.07-2.07 2.07zM20.45 20.45h-3.55v-5.57c0-1.33-.03-3.05-1.86-3.05-1.86 0-2.15 1.45-2.15 2.95v5.67h-3.55V9h3.41v1.56h.05c.48-.9 1.63-1.86 3.35-1.86 3.58 0 4.24 2.36 4.24 5.43v6.32z"/>
</svg>